# xmcd
#
# Track frame offsets: 
#        150
#        18059
#        36238
#        54131
#        74137
#        93917
#        111286
#        125627
#        142993
#        157549
#        174028
#        190648
#        215345
#        232435
#        251007
#        266424
#        285158
#        303083
#        321526
#        336545
#
# Disc length: 4704 seconds
#
# Revision: 0
# Processed by: cddbd v1.5.2PL0 Copyright (c) Steve Scherf et al.
# Submitted via: ExactAudioCopy v0.99pb5
#
DISCID=16125e14
DTITLE=Various Artist - ERG Nu Urban Traxx #139
DYEAR=2009
DGENRE=R&B
TTITLE0=Beyonce - Ego
TTITLE1=Faboloust Ft Jeremiah - My Time
TTITLE2=Pleasure P - Under
TTITLE3=Rick Ross Ft T Pain and Kanye West - Maybach Music #2
TTITLE4=2 pistols Ft Joe and C Ride - Lights Low
TTITLE5=Akon - Be With You
TTITLE6=New Boyz - You're A Jerk
TTITLE7=Lyfe Jennings - Haters
TTITLE8=Jadakis Ft Swizz Beats and OJ Da Juiceman - Who's Real
TTITLE9=Unladylike - Dough
TTITLE10=Asher Roth Ft Cee Lo - Be By Myself
TTITLE11=Kirk Franklin - Help Me Believe
TTITLE12=Method Man and Redman Ft Saukrates - A Yo
TTITLE13=Lionel Richie - I'm In Love
TTITLE14=Glasses Malone Ft Birdaman Rick Ross and T Pain - Sun Come Up
TTITLE15=Chrisette Michelle - Blame It On Me
TTITLE16=Cam'Ron - Cookies N Apple Juice
TTITLE17=Vistoso Bosses Ft Soulja Boy - Delirious
TTITLE18=Wale Ft Lady Gaga - Chillin'
TTITLE19=DJ Class Ft Jane West - I'm The Ish
EXTD=
EXTT0=
EXTT1=
EXTT2=
EXTT3=
EXTT4=
EXTT5=
EXTT6=
EXTT7=
EXTT8=
EXTT9=
EXTT10=
EXTT11=
EXTT12=
EXTT13=
EXTT14=
EXTT15=
EXTT16=
EXTT17=
EXTT18=
EXTT19=
PLAYORDER=
